name pl08_filtered_grf.mot
datacolumns 37
datarows 11
range 0.539500 0.544500
endheader
time	1_ground_force_vx	1_ground_force_vy	1_ground_force_vz	1_ground_force_px	1_ground_force_py	1_ground_force_pz	1_ground_torque_x	1_ground_torque_y	1_ground_torque_z	2_ground_force_vx	2_ground_force_vy	2_ground_force_vz	2_ground_force_px	2_ground_force_py	2_ground_force_pz	2_ground_torque_x	2_ground_torque_y	2_ground_torque_z	3_ground_force_vx	3_ground_force_vy	3_ground_force_vz	3_ground_force_px	3_ground_force_py	3_ground_force_pz	3_ground_torque_x	3_ground_torque_y	3_ground_torque_z	4_ground_force_vx	4_ground_force_vy	4_ground_force_vz	4_ground_force_px	4_ground_force_py	4_ground_force_pz	4_ground_torque_x	4_ground_torque_y	4_ground_torque_z
            0.539500	           -0.000264	            0.000412	            0.000963	            0.144966	            0.000000	            0.187903	            0.000322	            0.000459	           -0.000131	            0.000522	            0.004682	            0.001793	           -0.143518	            0.000000	            0.238076	            0.000719	           -0.000501	            0.000717	           21.306845	            1.333894	            0.266162	            0.375704	            1.311201	            1.914024	           -0.086442	           -0.005412	           -0.001080	          -19.467036	           -0.479986	            2.335869	           -0.265748	            1.310042	            1.925021	            0.018577	            0.000458	           -0.002229
            0.540000	           -0.000340	            0.000908	            0.001397	            0.144966	            0.000000	            0.187903	            0.000675	            0.000644	           -0.000283	            0.000518	            0.005398	            0.002154	           -0.143518	            0.000000	            0.238076	            0.000827	           -0.000577	            0.000825	           21.328334	            1.340110	            0.265873	            0.375706	            1.311191	            1.914013	           -0.086111	           -0.005411	           -0.001073	          -19.466042	           -0.473900	            2.340229	           -0.265749	            1.310042	            1.925013	            0.018414	            0.000448	           -0.002214
            0.540500	           -0.000418	            0.001434	            0.001850	            0.144966	            0.000000	            0.187903	            0.001050	            0.000837	           -0.000445	            0.000509	            0.006111	            0.002519	           -0.143518	            0.000000	            0.238076	            0.000935	           -0.000652	            0.000932	           21.352452	            1.347322	            0.266534	            0.375709	            1.311180	            1.913998	           -0.085808	           -0.005414	           -0.001071	          -19.464935	           -0.466990	            2.343660	           -0.265747	            1.310040	            1.925004	            0.018287	            0.000439	           -0.002202
            0.541000	           -0.000497	            0.001988	            0.002321	            0.144966	            0.000000	            0.187903	            0.001444	            0.001036	           -0.000615	            0.000492	            0.006814	            0.002887	           -0.143518	            0.000000	            0.238076	            0.001040	           -0.000726	            0.001037	           21.379100	            1.355492	            0.267974	            0.375712	            1.311170	            1.913984	           -0.085536	           -0.005423	           -0.001072	          -19.463752	           -0.459247	            2.346348	           -0.265746	            1.310039	            1.924996	            0.018197	            0.000429	           -0.002194
            0.541500	           -0.000578	            0.002565	            0.002804	            0.144966	            0.000000	            0.187903	            0.001854	            0.001240	           -0.000793	            0.000469	            0.007497	            0.003252	           -0.143518	            0.000000	            0.238076	            0.001143	           -0.000799	            0.001139	           21.408157	            1.364581	            0.270126	            0.375715	            1.311159	            1.913970	           -0.085295	           -0.005437	           -0.001076	          -19.462563	           -0.450674	            2.348255	           -0.265744	            1.310038	            1.924987	            0.018143	            0.000420	           -0.002189
            0.542000	           -0.000659	            0.003161	            0.003295	            0.144966	            0.000000	            0.187903	            0.002277	            0.001446	           -0.000976	            0.000438	            0.008151	            0.003610	           -0.143518	            0.000000	            0.238076	            0.001241	           -0.000868	            0.001237	           21.439486	            1.374555	            0.272928	            0.375717	            1.311148	            1.913956	           -0.085085	           -0.005455	           -0.001083	          -19.461437	           -0.441278	            2.349350	           -0.265743	            1.310036	            1.924979	            0.018125	            0.000411	           -0.002188
            0.542500	           -0.000739	            0.003771	            0.003789	            0.144966	            0.000000	            0.187903	            0.002710	            0.001654	           -0.001163	            0.000399	            0.008766	            0.003957	           -0.143518	            0.000000	            0.238076	            0.001333	           -0.000932	            0.001328	           21.472926	            1.385381	            0.276323	            0.375720	            1.311137	            1.913942	           -0.084909	           -0.005478	           -0.001093	          -19.460447	           -0.431073	            2.349613	           -0.265741	            1.310035	            1.924970	            0.018141	            0.000402	           -0.002190
            0.543000	           -0.000817	            0.004388	            0.004281	            0.144966	            0.000000	            0.187903	            0.003147	            0.001859	           -0.001353	            0.000353	            0.009331	            0.004287	           -0.143518	            0.000000	            0.238076	            0.001417	           -0.000992	            0.001412	           21.508308	            1.397031	            0.280038	            0.375723	            1.311127	            1.913926	           -0.084767	           -0.005506	           -0.001104	          -19.459679	           -0.420077	            2.348914	           -0.265738	            1.310034	            1.924961	            0.018191	            0.000393	           -0.002196
            0.543500	           -0.000892	            0.005006	            0.004765	            0.144966	            0.000000	            0.187903	            0.003585	            0.002061	           -0.001542	            0.000298	            0.009836	            0.004595	           -0.143518	            0.000000	            0.238076	            0.001492	           -0.001045	            0.001487	           21.545440	            1.409483	            0.284246	            0.375725	            1.311118	            1.913910	           -0.084660	           -0.005538	           -0.001117	          -19.459196	           -0.408320	            2.347364	           -0.265735	            1.310032	            1.924952	            0.018272	            0.000383	           -0.002204
            0.544000	           -0.000963	            0.005619	            0.005235	            0.144966	            0.000000	            0.187903	            0.004018	            0.002255	           -0.001730	            0.000236	            0.010270	            0.004876	           -0.143518	            0.000000	            0.238076	            0.001556	           -0.001090	            0.001550	           21.584119	            1.422719	            0.288906	            0.375728	            1.311108	            1.913894	           -0.084587	           -0.005576	           -0.001132	          -19.459070	           -0.395831	            2.344962	           -0.265731	            1.310030	            1.924944	            0.018383	            0.000374	           -0.002215
            0.544500	           -0.001029	            0.006217	            0.005684	            0.144966	            0.000000	            0.187903	            0.004441	            0.002440	           -0.001914	            0.000166	            0.010622	            0.005125	           -0.143518	            0.000000	            0.238076	            0.001608	           -0.001127	            0.001601	           21.624135	            1.436727	            0.293977	            0.375730	            1.311098	            1.913878	           -0.084550	           -0.005618	           -0.001149	          -19.459376	           -0.382650	            2.341717	           -0.265728	            1.310029	            1.924935	            0.018521	            0.000364	           -0.002229
